<?xml version="1.0" encoding="UTF-8" standalone="no"?>
<svg
   xmlns:dc="http://purl.org/dc/elements/1.1/"
   xmlns:cc="http://creativecommons.org/ns#"
   xmlns:rdf="http://www.w3.org/1999/02/22-rdf-syntax-ns#"
   xmlns:svg="http://www.w3.org/2000/svg"
   xmlns="http://www.w3.org/2000/svg"
   xmlns:sodipodi="http://sodipodi.sourceforge.net/DTD/sodipodi-0.dtd"
   xmlns:inkscape="http://www.inkscape.org/namespaces/inkscape"
   viewBox="0 0 48 48"
   id="svg2"
   height="48"
   width="48"
   version="1.1"
   inkscape:version="0.92.4 (5da689c313, 2019-01-14)"
   sodipodi:docname="apexion_logo.svg">
  <sodipodi:namedview
     pagecolor="#ffffff"
     bordercolor="#666666"
     borderopacity="1"
     objecttolerance="10"
     gridtolerance="10"
     guidetolerance="10"
     inkscape:pageopacity="0"
     inkscape:pageshadow="2"
     inkscape:window-width="1314"
     inkscape:window-height="704"
     id="namedview58"
     showgrid="false"
     inkscape:zoom="3.9003272"
     inkscape:cx="63.02876"
     inkscape:cy="3.4758548"
     inkscape:window-x="52"
     inkscape:window-y="27"
     inkscape:window-maximized="1"
     inkscape:current-layer="svg2"
     showguides="true"
     inkscape:guide-bbox="true" />
  <metadata
     id="metadata60">
    <rdf:RDF>
      <cc:Work
         rdf:about="">
        <dc:format>image/svg+xml</dc:format>
        <dc:type
           rdf:resource="http://purl.org/dc/dcmitype/StillImage" />
        <dc:title></dc:title>
      </cc:Work>
    </rdf:RDF>
  </metadata>
  <defs
     id="defs58" />
  <g
     id="g4597"
     transform="matrix(0.7118199,0,0,0.7118199,-173.0365,-558.42486)">
    <path
       id="path44"
       style="fill:#30b492;fill-opacity:1;fill-rule:evenodd"
       d="m 291.04507,822.48112 c 1.6264,0 2.9529,1.3265 2.9529,2.9529 0,1.4037 -0.9884,2.5835 -2.3047,2.8804 -3.4505,9.1768 -12.3235,15.7365 -22.681,15.7365 -10.3458,0 -19.2106,-6.5448 -22.6694,-15.705 -1.395,-0.2343 -2.4641,-1.452 -2.4641,-2.9119 0,-1.6264 1.3265,-2.9529 2.9529,-2.9529 1.6265,0 2.953,1.3265 2.953,2.9529 0,0.9674 -0.469,1.8282 -1.1916,2.3673 3.2003,8.1542 11.1532,13.9543 20.4192,13.9543 9.2346,0 17.1664,-5.7608 20.3878,-13.8718 -0.788,-0.5312 -1.308,-1.4316 -1.308,-2.4498 0,-1.6264 1.3265,-2.9529 2.953,-2.9529 z"
       inkscape:connector-curvature="0" />
    <path
       id="path46"
       style="fill:#30b492;fill-rule:evenodd"
       d="m 272.47217,789.93962 c 0,-1.6265 -1.3264,-2.9529 -2.9529,-2.9529 -1.4037,0 -2.5835,0.9884 -2.8804,2.3046 -9.1768,3.4505 -15.7364,12.3235 -15.7364,22.681 0,10.3458 6.5447,19.2107 15.705,22.6695 0.2342,1.3949 1.4519,2.464 2.9118,2.464 1.6265,0 2.9529,-1.3264 2.9529,-2.9529 0,-1.6265 -1.3264,-2.9529 -2.9529,-2.9529 -0.9674,0 -1.8282,0.4689 -2.3673,1.1915 -8.1542,-3.2003 -13.9543,-11.1531 -13.9543,-20.4192 0,-9.2345 5.7608,-17.1663 13.8718,-20.3877 0.5312,0.7879 1.4316,1.3079 2.4498,1.3079 1.6265,0 2.9529,-1.3265 2.9529,-2.9529 z"
       inkscape:connector-curvature="0" />
    <path
       id="path48"
       style="fill:#30b492;fill-rule:evenodd"
       d="m 262.78357,814.17582 c -1.6264,0 -2.9529,-1.3264 -2.9529,-2.9529 0,-1.4037 0.9884,-2.5835 2.3046,-2.8804 3.4505,-9.1768 12.3236,-15.7364 22.6811,-15.7364 10.3457,0 19.2106,6.5447 22.6694,15.705 1.395,0.2343 2.4641,1.452 2.4641,2.9118 0,1.6265 -1.3265,2.9529 -2.953,2.9529 -1.6264,0 -2.9529,-1.3264 -2.9529,-2.9529 0,-0.9674 0.469,-1.8282 1.1916,-2.3673 -3.2004,-8.1542 -11.1532,-13.9543 -20.4192,-13.9543 -9.2346,0 -17.1664,5.7608 -20.3878,13.8718 0.7879,0.5312 1.3079,1.4316 1.3079,2.4498 0,1.6265 -1.3264,2.9529 -2.9529,2.9529 z"
       inkscape:connector-curvature="0" />
    <path
       id="path50"
       style="fill:#30b492;fill-rule:evenodd"
       d="m 281.35647,846.71742 c 0,1.6264 1.3264,2.9529 2.9529,2.9529 1.4037,0 2.5834,-0.9884 2.8804,-2.3047 9.1767,-3.4505 15.7364,-12.3235 15.7364,-22.681 0,-10.3458 -6.5447,-19.2106 -15.705,-22.6694 -0.2343,-1.395 -1.452,-2.4641 -2.9118,-2.4641 -1.6265,0 -2.9529,1.3265 -2.9529,2.9529 0,1.6265 1.3264,2.953 2.9529,2.953 0.9674,0 1.8282,-0.469 2.3673,-1.1916 8.1542,3.2003 13.9543,11.1532 13.9543,20.4192 0,9.2346 -5.7608,17.1664 -13.8718,20.3878 -0.5313,-0.788 -1.4317,-1.308 -2.4498,-1.308 -1.6265,0 -2.9529,1.3265 -2.9529,2.953 z"
       inkscape:connector-curvature="0" />
  </g>
  <g
     transform="matrix(0.86276527,0,0,1.1590638,0,-1321.1339)"
     style="font-style:normal;font-weight:normal;font-size:6.11813736px;line-height:125%;font-family:sans-serif;letter-spacing:0px;word-spacing:0px;fill:#1b1918;fill-opacity:1;stroke:none;stroke-width:1px;stroke-linecap:butt;stroke-linejoin:miter;stroke-opacity:1"
     id="text5671" />
</svg>
